<svg width="506" height="422" viewBox="0 0 506 422" fill="none" xmlns="http://www.w3.org/2000/svg">
<g clip-path="url(#clip0_2_287)">
<g opacity="1">
<path d="M253.3 0.500122C113.91 0.500122 0.910034 113.5 0.910034 252.9C0.910034 392.3 113.91 505.3 253.3 505.3C392.69 505.3 505.71 392.3 505.71 252.9C505.71 113.5 392.7 0.500122 253.3 0.500122ZM253.3 464.36C136.7 464.36 41.85 369.5 41.85 252.9C41.85 136.3 136.7 41.4401 253.3 41.4401C369.9 41.4401 464.76 136.31 464.76 252.9C464.76 369.49 369.9 464.36 253.3 464.36Z" fill="white"/>
<path d="M322.87 416.3C322.87 408.85 328.77 402.94 336.25 402.94C343.73 402.94 349.64 408.85 349.64 416.3C349.64 423.75 343.72 429.66 336.25 429.66C328.78 429.66 322.87 423.74 322.87 416.3ZM325.03 416.3C325.03 422.59 330.13 427.49 336.24 427.49C342.35 427.49 347.46 422.59 347.46 416.3C347.46 410.01 342.37 405.11 336.24 405.11C330.11 405.11 325.03 409.98 325.03 416.3ZM342.38 422.95H339.9L336.05 416.87H332.67V422.95H330.64V408.76H337.4C340.13 408.76 342.57 409.65 342.57 412.81C342.57 415.76 340.57 416.4 338.57 416.47L342.38 422.96L342.38 422.95ZM332.67 410.79V414.85H335.57C337.62 414.85 340.41 415.02 340.41 412.98C340.41 411.09 338.81 410.79 337.01 410.79H332.68H332.67Z" fill="white"/>
<path fill-rule="evenodd" clip-rule="evenodd" d="M304.34 67.7902C297.99 67.1602 275.78 65.8302 270.09 67.1102C268.74 68.7202 256.81 325.15 256.44 326.3C256.15 327.21 252.72 327.3 252.02 326.3C252.02 325.11 252.03 68.9502 252.03 68.9502C252.03 68.9502 250.07 67.3602 248.22 67.3602C246.37 67.3602 244.58 68.8302 244.58 68.8302L244.56 326.31C244.21 326.95 240.83 327.35 240.37 326.31C239.63 324.45 227.55 68.6602 226.37 67.1202C220.94 66.0502 194.8 66.6902 191.29 67.7602C190.73 69.5402 133.91 374.52 133.91 374.52C133.91 374.52 134.11 378.28 137.77 379.03C141.43 379.78 143.22 377.77 143.64 376.02C144.06 374.28 208.13 124.43 208.13 124.43L231.34 332.58C231.99 336.09 244.65 336.01 244.65 336.01L244.63 380.94C244.63 380.94 241.19 382.96 240.72 384.67C237.85 385.58 235.92 385.62 234.37 388.18C234.01 388.77 233.86 389.6 234.13 390.42C234.41 391.24 242.32 414.34 246.88 427.7C247.05 428.2 247.7 429.44 248.31 429.44C248.92 429.44 249.64 428.5 249.94 427.6C255.07 411.58 261.08 394.53 262.37 390.04C262.55 389.45 262.72 389.04 262.21 388.22C261.12 386.59 260.9 385.9 255.77 384.68C255.27 382.81 252.06 380.95 252.06 380.95L252.01 335.97C252.01 335.97 264.89 335.1 265.01 332.52C265.22 330.74 288.92 124.3 288.92 124.3C288.92 124.3 361.28 416.3 361.75 418.02C362.22 419.74 364.77 421.98 367.87 421.46C371 420.98 372.77 418.66 372.21 416.1C371.65 413.54 305.35 69.0902 304.36 67.8102L304.34 67.7902ZM247.62 393.98L243.52 394.58L247.62 423.68L237.73 390.98C238.73 390.48 242.67 389.43 247.62 389.5V393.98Z" fill="white"/>
</g>
</g>
<defs>
<clipPath id="clip0_2_287">
<rect width="504.8" height="504.8" fill="white" transform="translate(0.910034 0.500122)"/>
</clipPath>
</defs>
</svg>
